<svg width="42" height="43" viewBox="0 0 42 43" fill="none" xmlns="http://www.w3.org/2000/svg">
<rect x="1" y="5.59644" width="36.2607" height="36.2607" rx="2.04286" stroke="#4C1DBB" stroke-width="1.53214"/>
<path d="M4.0643 5.59643V3.04286C4.0643 1.91462 4.97892 1 6.10716 1H38.2822C39.4104 1 40.325 1.91462 40.325 3.04286V35.2179C40.325 36.3461 39.4104 37.2607 38.2822 37.2607H37.2607" stroke="#4C1DBB" stroke-width="1.53214"/>
<path d="M15.9639 23.4716C17.8367 23.4716 19.3602 21.9825 19.3602 20.1519C19.3602 18.3214 17.8367 16.8323 15.9639 16.8323C14.0912 16.8323 12.5677 18.3214 12.5677 20.1519C12.5677 21.9825 14.0912 23.4716 15.9639 23.4716ZM15.9639 18.7292C16.7693 18.7292 17.4195 19.3647 17.4195 20.1519C17.4195 20.9391 16.7693 21.5746 15.9639 21.5746C15.1586 21.5746 14.5084 20.9391 14.5084 20.1519C14.5084 19.3647 15.1586 18.7292 15.9639 18.7292ZM16.0125 28.2139H11.8593C12.82 27.7397 14.4793 27.2654 15.9639 27.2654C16.0707 27.2654 16.1871 27.2749 16.2939 27.2749C16.6238 26.5825 17.1963 26.0135 17.8853 25.5582C17.1769 25.4349 16.5073 25.3685 15.9639 25.3685C13.6933 25.3685 9.17145 26.4782 9.17145 28.6881V30.1108H15.9639V28.6881C15.9639 28.5269 15.9834 28.3657 16.0125 28.2139ZM23.2416 25.8427C21.4562 25.8427 17.9047 26.8007 17.9047 28.6881V30.1108H28.5786V28.6881C28.5786 26.8007 25.0271 25.8427 23.2416 25.8427ZM24.4158 24.1165C25.1532 23.7087 25.6675 22.9404 25.6675 22.0489C25.6675 20.74 24.5807 19.6777 23.2416 19.6777C21.9025 19.6777 20.8157 20.74 20.8157 22.0489C20.8157 22.9404 21.33 23.7087 22.0675 24.1165C22.4168 24.3062 22.8147 24.42 23.2416 24.42C23.6686 24.42 24.0664 24.3062 24.4158 24.1165Z" fill="#4C1DBB"/>
</svg>
