<svg width="62" height="101" viewBox="0 0 62 101" fill="none" xmlns="http://www.w3.org/2000/svg">
<path d="M18.2731 66.8897V61.9904C18.2731 58.9891 18.6924 56.3408 19.531 54.0456C20.3696 51.7063 21.7158 49.4994 23.5696 47.425C25.4234 45.3063 27.873 43.1436 30.9185 40.9367C33.6551 38.9946 35.8399 37.2512 37.473 35.7064C39.1503 34.1615 40.364 32.6388 41.1144 31.1381C41.9089 29.5933 42.3061 27.8498 42.3061 25.9078C42.3061 23.0388 41.2468 20.854 39.1282 19.3533C37.0096 17.8526 34.0523 17.1023 30.2565 17.1023C26.4606 17.1023 22.6868 17.6981 18.9351 18.8898C15.2275 20.0816 11.4538 21.6485 7.61377 23.5905L0.39724 9.09125C4.81102 6.61953 9.59998 4.63333 14.7641 3.13264C19.9282 1.58782 25.5779 0.815407 31.713 0.815407C41.1585 0.815407 48.4633 3.08851 53.6275 7.6347C58.8357 12.1368 61.4399 17.8747 61.4399 24.8485C61.4399 28.556 60.844 31.7781 59.6523 34.5146C58.5047 37.207 56.7392 39.7229 54.3557 42.0622C52.0164 44.3574 49.0813 46.785 45.5502 49.3449C42.902 51.287 40.8716 52.9201 39.4592 54.2442C38.0468 55.5684 37.0758 56.8925 36.5461 58.2166C36.0606 59.4966 35.8178 61.0635 35.8178 62.9173V66.8897H18.2731ZM16.1544 89.5324C16.1544 85.3835 17.28 82.4704 19.531 80.7931C21.8262 79.1159 24.5848 78.2773 27.8068 78.2773C30.9406 78.2773 33.633 79.1159 35.8841 80.7931C38.1792 82.4704 39.3268 85.3835 39.3268 89.5324C39.3268 93.5048 38.1792 96.3738 35.8841 98.1393C33.633 99.9048 30.9406 100.788 27.8068 100.788C24.5848 100.788 21.8262 99.9048 19.531 98.1393C17.28 96.3738 16.1544 93.5048 16.1544 89.5324Z" fill="#4C1DBB"/>
</svg>
