<?xml version="1.0" encoding="UTF-8"?><svg xmlns="http://www.w3.org/2000/svg" xmlns:xlink="http://www.w3.org/1999/xlink" viewBox="0 0 48 48" version="1.1"><g id="surface1"><path d="M17 24L7 17.469s1-1.867 1-3.735C8 11.867 7 10 7 10l10 6.531z" fill="#CFD8DC"/><path d="M17 40L7 32.531s1-.933 1-2.797C8 27.867 7 26 7 26l10 6.531z" fill="#CFD8DC"/><path d="M17 32L7 24.531s1-.933 1-2.797C8 19.867 7 18 7 18l10 6.531z" fill="#CFD8DC"/><path d="M17.625 34a.992.992 0 0 1-.625-.219l-10.625-8a1 1 0 1 1 1.25-1.562l10.625 8c.43.347.5.976.156 1.406-.199.246-.488.375-.781.375z" fill="#3F51B5"/><path d="M42 25H16s1 1.742 1 4.246C17 31.75 16 33 16 33h26s1-1 1-4-1-4-1-4z" fill="#3F51B5"/><path d="M17.625 26a.992.992 0 0 1-.625-.219l-10.625-8a1 1 0 1 1 1.25-1.562l10.625 8c.43.347.5.976.156 1.406-.199.246-.488.375-.781.375z" fill="#9C27B0"/><path d="M42 17H16s1 1.742 1 4.246C17 23.75 16 25 16 25h26s1-1 1-4-1-4-1-4z" fill="#9C27B0"/><path d="M18.61 41a.982.982 0 0 0-.36-.781l-10.625-8a1.003 1.003 0 0 0-1.406.156 1.003 1.003 0 0 0 .156 1.406L15.961 41z" fill="#8BC34A"/><path d="M42 33H16s1 1.742 1 4.246C17 39.75 16 41 16 41h26s1-1 1-4-1-4-1-4z" fill="#8BC34A"/><path d="M42 33H16s.441.758.734 2H42.77c-.297-1.441-.77-2-.77-2z" fill="#689F38"/><path d="M42 25H16s.441.758.734 2H42.77c-.297-1.441-.77-2-.77-2z" fill="#303F9F"/><path d="M21.035 32c.11-.45.297-1.379.297-2.5s-.187-2.05-.297-2.5H19c.004.008.332 1.266.332 2.5S19.004 31.992 19 32z" fill="#FDD835"/><path d="M21.035 24c.11-.45.297-1.379.297-2.5s-.187-2.05-.297-2.5H19c.004.008.332 1.266.332 2.5S19.004 23.992 19 24z" fill="#FDD835"/><path d="M21.035 40c.11-.45.297-1.379.297-2.5s-.187-2.05-.297-2.5H19c.004.008.332 1.266.332 2.5S19.004 39.992 19 40z" fill="#FDD835"/><path d="M42.77 19c-.297-1.441-.77-2-.77-2L30.844 8.59S30.062 8 29 8H7l.02.02a.975.975 0 0 0-.829.39 1.003 1.003 0 0 0 .22 1.399l9.737 7.468c.16.325.418.922.606 1.723z" fill="#7B1FA2"/><path d="M32 16L21 8h-5l11 8c1.75 1.25 2 1.625 2 3v19s0 3-2 3h5c2 0 2-3 2-3V19c0-2-1.563-2.563-2-3z" fill="#AF7000"/><path d="M34 27v4h-5v-4h5m.25-1h-5.5a.75.75 0 0 0-.75.75v4.5c0 .414.336.75.75.75h5.5a.75.75 0 0 0 .75-.75v-4.5a.75.75 0 0 0-.75-.75z" fill="#FFC107"/><path d="M32 29c0 .277-.223.5-.5.5a.498.498 0 0 1-.5-.5c0-.277.223-.5.5-.5s.5.223.5.5z" fill="#5B3B07"/><path d="M31.5 29a.498.498 0 0 1-.5-.5v-3c0-.277.223-.5.5-.5s.5.223.5.5v3c0 .277-.223.5-.5.5z" fill="#FFEB3B"/></g><metadata><rdf:RDF xmlns:rdf="http://www.w3.org/1999/02/22-rdf-syntax-ns#" xmlns:rdfs="http://www.w3.org/2000/01/rdf-schema#" xmlns:dc="http://purl.org/dc/elements/1.1/"><rdf:Description about="https://iconscout.com/legal#licenses" dc:title="winrar" dc:description="winrar" dc:publisher="Iconscout" dc:date="2017-12-15" dc:format="image/svg+xml" dc:language="en"><dc:creator><rdf:Bag><rdf:li>Icons8</rdf:li></rdf:Bag></dc:creator></rdf:Description></rdf:RDF></metadata></svg>