<svg width="116" height="23" viewBox="0 0 116 23" fill="none" xmlns="http://www.w3.org/2000/svg">
<path d="M32.6375 0.00551775L6.86782 1.79874C5.81519 1.87248 5 2.74579 5 3.79766V5.90916L20.932 5.54042C23.5319 5.53654 24.3075 6.63887 24.2798 8.65722V18.9469L32.594 19.9832C33.8722 20.1424 35 19.1487 35 17.864V2.2024C34.996 0.921525 33.9118 -0.0837551 32.6375 0.00551775Z" fill="white"/>
<path d="M18.424 8.00473H3.89809C3.04695 8.00082 2 8.59202 2 9.97017V11.1251L6.58332 11.18C8.32703 11.2309 9.09534 12.3467 9.09534 13.6074V21.1206L17.7009 22.8746C19.4521 23.3014 21 22.6515 21 20.7252V10.6397C21 8.6429 19.3053 7.93426 18.424 8.00473Z" fill="white"/>
<path d="M18.3476 8.00456H4V11.0362L6.156 11.0626C7.95139 11.1116 8.74247 12.1863 8.74247 13.4005V17.4842L21 19V10.5422C21 8.61918 19.255 7.93669 18.3476 8.00456Z" fill="white"/>
<path d="M4.2173 13.1717L0 13V18.9183C0 20.3202 1.13875 21.0559 1.86519 21.1581L6 22V15.0231C5.99607 14.0013 5.19898 13.1717 4.2173 13.1717Z" fill="white"/>
<path d="M6 14.7179C6 13.8022 5.29679 13.0586 4.43073 13.0586L3 13V15.9231C3 16.8791 3.66165 17.6813 4.54157 17.8022L6 18V14.7179Z" fill="white"/>
<path d="M57.6767 6.15073L52.1172 18H50.8177L45 6.15073H48.2617L51.4373 12.8248L54.4495 6.15073H57.6767Z" fill="white"/>
<path d="M59.0107 6.15073H64.312C66.3602 6.15073 67.9782 6.69784 69.1658 7.79204C70.3592 8.88067 70.9559 10.2903 70.9559 12.0209C70.9559 13.8353 70.3506 15.2617 69.14 16.3001C67.9352 17.3329 66.2139 17.8493 63.9764 17.8493H59.0107V6.15073ZM62.0056 8.29449V15.7055H63.9592C65.2271 15.7055 66.1967 15.3678 66.868 14.6923C67.5393 14.0112 67.8749 13.1151 67.8749 12.0042C67.8749 10.8542 67.5335 9.94976 66.8508 9.291C66.1738 8.62666 65.1984 8.29449 63.9247 8.29449H62.0056Z" fill="white"/>
<path d="M79.5361 6C81.5844 6 83.2425 6.60293 84.5104 7.80879C85.7784 9.00907 86.4124 10.4075 86.4124 12.0042C86.4124 13.6232 85.7698 15.0272 84.4846 16.2163C83.1994 17.4054 81.5499 18 79.5361 18C77.4994 18 75.8412 17.4082 74.5618 16.2247C73.2824 15.0412 72.6427 13.6343 72.6427 12.0042C72.6427 10.402 73.2766 9.0007 74.5446 7.80042C75.8183 6.60014 77.4821 6 79.5361 6ZM79.5361 15.5715C80.6721 15.5715 81.5872 15.2449 82.2815 14.5918C82.9757 13.933 83.3228 13.0705 83.3228 12.0042C83.3228 10.9323 82.9757 10.0698 82.2815 9.41661C81.5872 8.76343 80.6721 8.43685 79.5361 8.43685C78.3944 8.43685 77.4735 8.76343 76.7736 9.41661C76.0793 10.0698 75.7322 10.9323 75.7322 12.0042C75.7322 13.0705 76.0793 13.933 76.7736 14.5918C77.4735 15.2449 78.3944 15.5715 79.5361 15.5715Z" fill="white"/>
<path d="M94.9582 6C97.0064 6 98.6645 6.60293 99.9325 7.80879C101.2 9.00907 101.834 10.4075 101.834 12.0042C101.834 13.6232 101.192 15.0272 99.9067 16.2163C98.6215 17.4054 96.972 18 94.9582 18C92.9214 18 91.2633 17.4082 89.9839 16.2247C88.7044 15.0412 88.0647 13.6343 88.0647 12.0042C88.0647 10.402 88.6987 9.0007 89.9667 7.80042C91.2404 6.60014 92.9042 6 94.9582 6ZM94.9582 15.5715C96.0942 15.5715 97.0093 15.2449 97.7035 14.5918C98.3977 13.933 98.7448 13.0705 98.7448 12.0042C98.7448 10.9323 98.3977 10.0698 97.7035 9.41661C97.0093 8.76343 96.0942 8.43685 94.9582 8.43685C93.8164 8.43685 92.8956 8.76343 92.1956 9.41661C91.5014 10.0698 91.1543 10.9323 91.1543 12.0042C91.1543 13.0705 91.5014 13.933 92.1956 14.5918C92.8956 15.2449 93.8164 15.5715 94.9582 15.5715Z" fill="white"/>
<path d="M116 6.15073V17.8493H113.005V13.1179H107.015V17.8493H104.02V6.15073H107.015V10.8486H113.005V6.15073H116Z" fill="white"/>
</svg>
